<svg xmlns="http://www.w3.org/2000/svg" viewBox="0 0 400 400" width="400" height="400">
  <defs>
    <linearGradient id="bgGrad" x1="0%" y1="0%" x2="100%" y2="100%">
      <stop offset="0%" style="stop-color:#1A3A6B;stop-opacity:1" />
      <stop offset="100%" style="stop-color:#0f2447;stop-opacity:1" />
    </linearGradient>
    <linearGradient id="goldGrad" x1="0%" y1="0%" x2="100%" y2="100%">
      <stop offset="0%" style="stop-color:#e2c270;stop-opacity:1" />
      <stop offset="100%" style="stop-color:#C9A84C;stop-opacity:1" />
    </linearGradient>
  </defs>

  <!-- Background circle -->
  <circle cx="200" cy="200" r="200" fill="url(#bgGrad)" />

  <!-- Building icon -->
  <!-- Main tower -->
  <rect x="155" y="110" width="90" height="140" fill="url(#goldGrad)" rx="2"/>
  <!-- Tower windows -->
  <rect x="168" y="122" width="18" height="16" fill="#1A3A6B" rx="1" opacity="0.7"/>
  <rect x="213" y="122" width="18" height="16" fill="#1A3A6B" rx="1" opacity="0.7"/>
  <rect x="168" y="148" width="18" height="16" fill="#1A3A6B" rx="1" opacity="0.7"/>
  <rect x="213" y="148" width="18" height="16" fill="#1A3A6B" rx="1" opacity="0.7"/>
  <rect x="168" y="174" width="18" height="16" fill="#1A3A6B" rx="1" opacity="0.7"/>
  <rect x="213" y="174" width="18" height="16" fill="#1A3A6B" rx="1" opacity="0.7"/>
  <!-- Center window -->
  <rect x="191" y="135" width="18" height="16" fill="#1A3A6B" rx="1" opacity="0.7"/>
  <rect x="191" y="161" width="18" height="16" fill="#1A3A6B" rx="1" opacity="0.7"/>

  <!-- Left wing -->
  <rect x="115" y="148" width="42" height="102" fill="#C9A84C" rx="2" opacity="0.85"/>
  <rect x="123" y="158" width="13" height="12" fill="#1A3A6B" rx="1" opacity="0.7"/>
  <rect x="140" y="158" width="13" height="12" fill="#1A3A6B" rx="1" opacity="0.7"/>
  <rect x="123" y="178" width="13" height="12" fill="#1A3A6B" rx="1" opacity="0.7"/>
  <rect x="140" y="178" width="13" height="12" fill="#1A3A6B" rx="1" opacity="0.7"/>
  <rect x="123" y="198" width="13" height="12" fill="#1A3A6B" rx="1" opacity="0.7"/>
  <rect x="140" y="198" width="13" height="12" fill="#1A3A6B" rx="1" opacity="0.7"/>

  <!-- Right wing -->
  <rect x="243" y="148" width="42" height="102" fill="#C9A84C" rx="2" opacity="0.85"/>
  <rect x="251" y="158" width="13" height="12" fill="#1A3A6B" rx="1" opacity="0.7"/>
  <rect x="268" y="158" width="13" height="12" fill="#1A3A6B" rx="1" opacity="0.7"/>
  <rect x="251" y="178" width="13" height="12" fill="#1A3A6B" rx="1" opacity="0.7"/>
  <rect x="268" y="178" width="13" height="12" fill="#1A3A6B" rx="1" opacity="0.7"/>
  <rect x="251" y="198" width="13" height="12" fill="#1A3A6B" rx="1" opacity="0.7"/>
  <rect x="268" y="198" width="13" height="12" fill="#1A3A6B" rx="1" opacity="0.7"/>

  <!-- Roof spire -->
  <rect x="196" y="92" width="8" height="22" fill="url(#goldGrad)" rx="1"/>
  <polygon points="200,78 192,96 208,96" fill="url(#goldGrad)"/>

  <!-- Base/ground floor -->
  <rect x="108" y="248" width="184" height="14" fill="url(#goldGrad)" rx="2"/>

  <!-- Gold line separator -->
  <rect x="60" y="286" width="280" height="2" fill="url(#goldGrad)" opacity="0.5" rx="1"/>

  <!-- EMC Text -->
  <text x="200" y="322" font-family="Arial, sans-serif" font-size="52" font-weight="900"
        fill="url(#goldGrad)" text-anchor="middle" letter-spacing="10">EMC</text>

  <!-- BUILDING Text -->
  <text x="200" y="348" font-family="Arial, sans-serif" font-size="16" font-weight="500"
        fill="rgba(255,255,255,0.7)" text-anchor="middle" letter-spacing="7">BUILDING</text>
</svg>
